<svg xmlns="http://www.w3.org/2000/svg" viewBox="0 0 32 32" fill="none">
  <rect width="32" height="32" rx="6" fill="#1e3a5f"/>
  <path d="M7 9.5C7 8.11929 8.11929 7 9.5 7h6.5c1.3807 0 2.5 1.11929 2.5 2.5v6.5c0 1.3807-1.1193 2.5-2.5 2.5H9.5C8.11929 18.5 7 17.3807 7 16V9.5Z" fill="#60a5fa" opacity="0.95"/>
  <path d="M16 16.5c0-1.3807 1.1193-2.5 2.5-2.5h6.5c1.3807 0 2.5 1.1193 2.5 2.5v6.5c0 1.3807-1.1193 2.5-2.5 2.5h-6.5c-1.3807 0-2.5-1.1193-2.5-2.5v-6.5Z" fill="#93c5fd" opacity="0.85"/>
  <path d="M16 7h2.5c1.3807 0 2.5 1.11929 2.5 2.5V12c0 .5523-.4477 1-1 1H16V7Z" fill="#bfdbfe" opacity="0.9"/>
</svg>
